Coordinates
version=1
nRows=43
nColumns=12
inDegrees=yes

Units are S.I. units (second, meters, Newtons, ...)
Angles are in degrees

endheader
time	SC_y	SC_z	SC_x	AC_y	AC_z	AC_x	GH_y	GH_z	GH_yy	EL_x	PS_y
       0.0              -28.33         -1.465          1.139          57.07          -9.14          10.11          159.1         0.5608         -162.5          16.26          62.77
  0.002284              -28.33         -1.465          1.143          57.07         -9.139          10.11          159.0         0.5617         -162.5          16.27          62.77
  0.004567              -28.34         -1.465          1.148          57.06         -9.138          10.11          159.0         0.5626         -162.5          16.29          62.77
  0.006851              -28.34         -1.465          1.152          57.06         -9.136          10.11          158.9         0.5636         -162.5          16.31          62.77
  0.009134              -28.34         -1.465          1.157          57.05         -9.135          10.11          158.9         0.5647         -162.4          16.32          62.77
   0.01142              -28.35         -1.465          1.162          57.05         -9.133           10.1          158.8         0.5658         -162.4          16.34          62.77
    0.0137              -28.35         -1.465          1.167          57.04         -9.132           10.1          158.8          0.567         -162.4          16.36          62.77
   0.01599              -28.35         -1.465          1.173          57.04          -9.13           10.1          158.7         0.5683         -162.4          16.38          62.77
   0.01827              -28.36         -1.465          1.179          57.03         -9.128           10.1          158.6         0.5696         -162.3           16.4          62.77
   0.02055              -28.36         -1.466          1.186          57.02         -9.126           10.1          158.6         0.5711         -162.3          16.43          62.77
   0.02284              -28.37         -1.466          1.193          57.02         -9.124           10.1          158.5         0.5727         -162.3          16.45          62.77
   0.02512              -28.37         -1.466          1.201          57.01         -9.121           10.1          158.4         0.5744         -162.2          16.48          62.77
    0.0274              -28.38         -1.466          1.209           57.0         -9.119           10.1          158.3         0.5762         -162.2          16.51          62.77
   0.02969              -28.38         -1.466          1.218          56.99         -9.116           10.1          158.2         0.5782         -162.1          16.54          62.77
   0.03197              -28.39         -1.466          1.228          56.98         -9.113           10.1          158.1         0.5803         -162.1          16.58          62.77
   0.03425               -28.4         -1.466          1.238          56.97          -9.11          10.09          158.0         0.5827         -162.0          16.61          62.77
   0.03654               -28.4         -1.466           1.25          56.96         -9.106          10.09          157.9         0.5852         -161.9          16.65          62.77
   0.03882              -28.41         -1.466          1.262          56.95         -9.103          10.09          157.8         0.5879         -161.9           16.7          62.76
   0.04111              -28.42         -1.467          1.276          56.93         -9.099          10.09          157.6         0.5909         -161.8          16.75          62.76
   0.04339              -28.43         -1.467          1.291          56.92         -9.094          10.09          157.5         0.5942         -161.7           16.8          62.76
   0.04567              -28.44         -1.467          1.307           56.9         -9.089          10.09          157.3         0.5978         -161.6          16.86          62.76
   0.04796              -28.45         -1.467          1.325          56.89         -9.083          10.08          157.1         0.6018         -161.5          16.92          62.76
   0.05024              -28.47         -1.468          1.345          56.87         -9.077          10.08          156.9         0.6062         -161.4          16.99          62.76
   0.05252              -28.48         -1.468          1.367          56.84         -9.071          10.08          156.7         0.6111         -161.3          17.07          62.76
   0.05481               -28.5         -1.468          1.391          56.82         -9.063          10.07          156.4         0.6165         -161.2          17.16          62.76
   0.05709              -28.52         -1.468          1.419          56.79         -9.055          10.07          156.1         0.6225         -161.0          17.26          62.76
   0.05937              -28.54         -1.469          1.449          56.76         -9.045          10.07          155.8         0.6293         -160.9          17.37          62.76
   0.06166              -28.56         -1.469          1.483          56.73         -9.035          10.06          155.5         0.6369         -160.7          17.49          62.76
   0.06394              -28.59          -1.47          1.522          56.69         -9.023          10.06          155.1         0.6454         -160.5          17.63          62.76
   0.06622              -28.61          -1.47          1.566          56.65          -9.01          10.05          154.6         0.6552         -160.3          17.79          62.76
   0.06851              -28.65         -1.471          1.617           56.6         -8.994          10.05          154.1         0.6663         -160.0          17.97          62.76
   0.07079              -28.69         -1.472          1.675          56.54         -8.977          10.04          153.5         0.6791         -159.7          18.18          62.75
   0.07308              -28.73         -1.472          1.741          56.47         -8.956          10.03          152.8         0.6939         -159.3          18.41          62.75
   0.07536              -28.78         -1.473          1.819           56.4         -8.932          10.02          152.0          0.711         -158.9          18.69          62.75
   0.07764              -28.84         -1.474           1.91          56.31         -8.905          10.01          151.0         0.7311         -158.4          19.02          62.75
   0.07993              -28.91         -1.476          2.017           56.2         -8.872          9.993          149.9         0.7547         -157.9           19.4          62.75
   0.08221               -29.0         -1.477          2.144          56.08         -8.833          9.976          148.5         0.7828         -157.2          19.85          62.74
   0.08449               -29.1         -1.479          2.296          55.93         -8.786          9.956          147.0         0.8165         -156.4           20.4          62.74
   0.08678              -29.22         -1.481           2.48          55.74          -8.73          9.932          145.0         0.8572         -155.4          21.06          62.74
   0.08906              -29.37         -1.484          2.705          55.52         -8.661          9.903          142.7          0.907         -154.2          21.86          62.73
   0.09134              -29.55         -1.488          2.983          55.25         -8.576          9.867          139.8         0.9684         -152.7          22.86          62.72
   0.09363              -29.78         -1.492           3.33           54.9          -8.47          9.821          136.1          1.045         -150.8           24.1          62.71
   0.09591              -30.07         -1.497          3.766          54.47         -8.337          9.764          131.6          1.141         -148.5          25.66           62.7
